<svg data-v-fde0c5aa="" xmlns="http://www.w3.org/2000/svg" viewBox="0 0 300 300" class="font"><!----><defs data-v-fde0c5aa=""><!----></defs><rect data-v-fde0c5aa="" fill="transparent" x="0" y="0" width="300px" height="300px" class="logo-background-square"></rect><defs data-v-fde0c5aa=""><linearGradient data-v-fde0c5aa="" gradientTransform="rotate(25)" id="97b7e526-eaf8-49e2-a083-e75bcd91ad84" x1="0%" y1="0%" x2="100%" y2="0%"><stop data-v-fde0c5aa="" offset="0%" stop-color="#21690F" stop-opacity="1"></stop><stop data-v-fde0c5aa="" offset="100%" stop-color="#88C848" stop-opacity="1"></stop></linearGradient></defs><g data-v-fde0c5aa="" id="d75e2bb2-4345-431d-98b7-cdcec677e75a" fill="url(#97b7e526-eaf8-49e2-a083-e75bcd91ad84)" transform="matrix(3.49040150642395,0,0,3.49040150642395,35.98603839989455,117.69633322128706)"><path d="M1.15 14.35L2.90 14.35L2.90 7.34L2.95 7.34L3.71 8.89L5.71 12.59L7.71 8.89L8.47 7.34L8.53 7.34L8.53 14.35L10.28 14.35L10.28 4.58L8.27 4.58L5.80 9.35L5.74 9.35L3.23 4.58L1.15 4.58ZM15.41 14.52C16.77 14.52 17.84 14 18.44 13.17L17.47 12.10C17.02 12.67 16.49 13.09 15.61 13.09C14.43 13.09 13.83 12.38 13.83 11.33L13.83 11.14L18.69 11.14L18.69 10.56C18.69 8.55 17.64 6.87 15.36 6.87C13.22 6.87 11.97 8.37 11.97 10.68C11.97 13.02 13.26 14.52 15.41 14.52ZM15.39 8.22C16.31 8.22 16.83 8.90 16.83 9.91L16.83 10.04L13.83 10.04L13.83 9.93C13.83 8.92 14.45 8.22 15.39 8.22ZM24.81 14.35L26.60 14.35L26.60 3.99L24.81 3.99L24.81 8.25L24.74 8.25C24.49 7.41 23.69 6.87 22.72 6.87C20.89 6.87 19.87 8.25 19.87 10.68C19.87 13.13 20.89 14.52 22.72 14.52C23.69 14.52 24.47 13.96 24.74 13.13L24.81 13.13ZM23.30 13.03C22.37 13.03 21.74 12.36 21.74 11.33L21.74 10.07C21.74 9.03 22.37 8.34 23.30 8.34C24.15 8.34 24.81 8.81 24.81 9.52L24.81 11.84C24.81 12.60 24.15 13.03 23.30 13.03ZM31.82 14.52C34.16 14.52 35.49 13.26 35.49 11.41C35.49 9.80 34.57 8.92 32.59 8.57L31.68 8.40C30.74 8.23 30.32 7.92 30.32 7.18C30.32 6.45 30.87 6.03 31.92 6.03C32.96 6.03 33.63 6.44 34.10 7.04L35.36 5.85C34.58 4.91 33.49 4.41 32.02 4.41C29.83 4.41 28.48 5.54 28.48 7.29C28.48 8.89 29.43 9.83 31.40 10.14L32.33 10.28C33.35 10.46 33.66 10.86 33.66 11.52C33.66 12.35 33.07 12.89 31.93 12.89C30.93 12.89 30.10 12.47 29.43 11.69L28.18 12.89C29.01 13.86 30.16 14.52 31.82 14.52ZM39.45 14.35L40.74 14.35L40.74 12.92L39.35 12.92L39.35 8.47L40.85 8.47L40.85 7.04L39.35 7.04L39.35 5.04L37.74 5.04L37.74 6.29C37.74 6.79 37.58 7.04 37.04 7.04L36.48 7.04L36.48 8.47L37.56 8.47L37.56 12.49C37.56 13.68 38.22 14.35 39.45 14.35ZM45.25 14.52C47.35 14.52 48.65 13.03 48.65 10.68C48.65 8.34 47.35 6.87 45.25 6.87C43.16 6.87 41.86 8.34 41.86 10.68C41.86 13.03 43.16 14.52 45.25 14.52ZM45.25 13.08C44.32 13.08 43.74 12.47 43.74 11.37L43.74 10.01C43.74 8.92 44.32 8.32 45.25 8.32C46.19 8.32 46.77 8.92 46.77 10.01L46.77 11.37C46.77 12.47 46.19 13.08 45.25 13.08ZM53.12 14.52C54.53 14.52 55.55 13.87 56.03 12.59L54.66 11.93C54.39 12.59 53.97 13.08 53.12 13.08C52.12 13.08 51.62 12.39 51.62 11.37L51.62 10.04C51.62 9.02 52.12 8.32 53.12 8.32C53.89 8.32 54.35 8.76 54.52 9.38L55.99 8.72C55.55 7.57 54.59 6.87 53.12 6.87C50.96 6.87 49.74 8.34 49.74 10.68C49.74 13.03 50.96 14.52 53.12 14.52ZM57.41 14.35L59.21 14.35L59.21 12.12L60.17 11.07L62.05 14.35L64.18 14.35L61.39 9.87L63.91 7.04L61.88 7.04L60.24 8.92L59.28 10.23L59.21 10.23L59.21 3.99L57.41 3.99Z"></path></g><!----><!----></svg>